<svg xmlns="http://www.w3.org/2000/svg" width="889" height="889" viewBox="0 0 889 889" version="1.1"><path d="M 413 0.597 C 411.075 0.816, 404.325 1.478, 398 2.070 C 382.349 3.533, 355.534 8.194, 338 12.499 C 177.077 52.006, 51.066 178.620, 12.056 340 C 3.080 377.132, 0.500 400.462, 0.500 444.500 C 0.500 488.538, 3.080 511.868, 12.056 549 C 51.265 711.205, 177.795 837.735, 340 876.944 C 377.132 885.920, 400.462 888.500, 444.500 888.500 C 480.265 888.500, 490.515 887.781, 517.500 883.379 C 691.783 854.952, 834.266 723.035, 876.501 551 C 881.272 531.568, 885.681 505.438, 887.059 488.426 C 887.680 480.767, 888.595 473.719, 889.094 472.764 C 890.375 470.308, 890.284 414.706, 889 415.500 C 888.386 415.879, 888 414.258, 888 411.303 C 888 397.890, 882.789 364.327, 876.930 340 C 835.633 168.541, 696.064 37.212, 522.500 6.494 C 495.507 1.717, 485.134 0.863, 450 0.524 C 431.575 0.346, 414.925 0.379, 413 0.597 M 422 57.014 C 414.025 57.480, 404.575 58.331, 401 58.904 C 397.425 59.478, 392.250 60.221, 389.500 60.555 C 382.978 61.349, 359.355 65.808, 355.500 66.974 C 353.850 67.472, 349.575 68.608, 346 69.499 C 338.723 71.310, 319.069 77.758, 309.065 81.616 C 279.784 92.907, 243.837 112.737, 219.450 131.050 C 209.319 138.658, 206.647 140.726, 204.638 142.513 C 204.012 143.070, 198.775 147.630, 193 152.645 C 164.705 177.218, 136.143 211.808, 116.717 245.028 C 111.561 253.844, 97 282.190, 97 283.410 C 97 283.705, 95.821 286.545, 94.380 289.723 C 89.117 301.328, 83.953 315.962, 78.968 333.405 C 75.726 344.747, 69.097 374.910, 68.508 381 C 68.322 382.925, 67.925 386.300, 67.626 388.500 C 65.668 402.909, 64.937 416.490, 64.983 437.625 C 65.075 479.805, 69.780 512.160, 81.472 551 C 88.706 575.033, 100.959 603.242, 114.483 627 C 119.302 635.465, 135.761 661.048, 137 662 C 137.358 662.275, 140.730 666.550, 144.493 671.500 C 148.257 676.450, 153.373 682.975, 155.862 686 C 160.423 691.541, 190.518 721.783, 195.171 725.500 C 196.548 726.600, 199.660 729.168, 202.087 731.206 C 230.878 755.384, 269.313 778.496, 303.500 792.186 C 327.728 801.888, 362.878 811.665, 384 814.577 C 385.925 814.842, 392.450 815.762, 398.500 816.620 C 413.467 818.743, 461.696 819.605, 479.148 818.062 C 486.468 817.415, 498.207 816.004, 505.235 814.927 C 517.726 813.012, 522.701 811.999, 540 807.847 C 544.675 806.725, 549.175 805.651, 550 805.462 C 553.834 804.580, 577.263 796.930, 579.040 795.978 C 580.141 795.389, 581.482 795.180, 582.021 795.513 C 582.559 795.846, 583 795.727, 583 795.250 C 583 794.772, 585.250 793.662, 588 792.783 C 590.750 791.903, 593 791.560, 593 792.021 C 593 793.090, 590.418 795.685, 588.768 796.274 C 588.071 796.523, 587.816 797.066, 588.202 797.482 C 588.589 797.898, 589.633 797.510, 590.524 796.619 C 592.293 794.850, 594.494 794.392, 593.500 796 C 593.160 796.550, 593.557 797, 594.382 797 C 595.207 797, 596.164 796.543, 596.509 795.985 C 597.481 794.413, 604.294 791.844, 606.182 792.337 C 607.111 792.580, 608.071 792.259, 608.315 791.623 C 608.559 790.987, 611.625 789.839, 615.129 789.072 C 618.633 788.305, 621.725 787.382, 622 787.020 C 622.600 786.230, 628.533 783.843, 639.943 779.799 C 644.587 778.154, 649.762 775.785, 651.443 774.535 C 653.124 773.285, 655.706 771.978, 657.180 771.630 C 658.654 771.282, 660.482 770.375, 661.243 769.614 C 663.060 767.797, 671 763.760, 671 764.654 C 671 765.036, 672.013 764.422, 673.250 763.289 C 674.487 762.157, 676.521 760.920, 677.768 760.542 C 679.016 760.163, 681.491 758.522, 683.268 756.895 C 685.046 755.267, 687.850 753.565, 689.500 753.112 C 691.150 752.659, 692.387 751.774, 692.250 751.144 C 692.112 750.515, 692.434 750, 692.965 750 C 693.496 750, 695.468 748.650, 697.347 747 C 699.226 745.350, 701.519 744, 702.441 744 C 703.363 744, 703.881 743.616, 703.590 743.146 C 703.300 742.677, 704.257 741.748, 705.717 741.083 C 708.524 739.804, 715.030 734.994, 718.680 731.500 C 719.879 730.352, 722.104 728.758, 723.625 727.957 C 726.178 726.612, 744 709.575, 744 708.479 C 744 708.213, 746.925 705.056, 750.500 701.463 C 754.075 697.870, 757 694.271, 757 693.465 C 757 692.659, 757.617 692, 758.372 692 C 760.243 692, 769.858 681.273, 771.627 677.210 C 772.416 675.400, 773.497 674.189, 774.030 674.519 C 774.564 674.848, 775 674.665, 775 674.111 C 775 673.556, 776.118 671.842, 777.484 670.302 C 781.703 665.545, 781.900 665.245, 782.568 662.586 C 782.925 661.164, 783.538 660, 783.930 660 C 784.322 660, 785.660 657.750, 786.903 655 C 788.146 652.250, 789.592 650, 790.117 650 C 790.642 650, 791.987 647.862, 793.107 645.250 C 794.227 642.637, 795.786 640.140, 796.571 639.700 C 797.357 639.260, 798 638.248, 798 637.450 C 798 636.653, 798.450 636, 799 636 C 799.550 636, 800 635.380, 800 634.622 C 800 633.865, 800.619 632.731, 801.375 632.103 C 802.132 631.476, 803.307 628.974, 803.987 626.545 C 804.668 624.116, 805.849 621.888, 806.612 621.595 C 807.375 621.302, 808 620.204, 808 619.154 C 808 618.104, 808.675 616.685, 809.500 616 C 810.325 615.315, 811 613.717, 811 612.449 C 811 611.181, 811.675 609.468, 812.500 608.643 C 813.325 607.818, 814.014 606.098, 814.032 604.821 C 814.049 603.545, 814.724 601.626, 815.532 600.559 C 816.339 599.491, 817 597.669, 817 596.509 C 817 595.349, 817.395 593.972, 817.877 593.450 C 818.359 592.927, 819.548 590.056, 820.518 587.069 C 821.487 584.082, 823.154 580.159, 824.220 578.352 C 825.287 576.544, 825.978 574.263, 825.756 573.283 C 825.535 572.302, 825.981 570.222, 826.749 568.660 C 827.517 567.098, 827.918 565.229, 827.641 564.507 C 827.364 563.785, 827.767 562.363, 828.537 561.347 C 829.307 560.331, 829.951 557.902, 829.968 555.950 C 829.986 553.997, 830.456 551.944, 831.013 551.387 C 831.571 550.829, 832.481 546.352, 833.036 541.437 C 833.590 536.521, 835.021 528.929, 836.214 524.564 C 837.850 518.580, 838.080 516.527, 837.150 516.217 C 836.185 515.895, 836.198 515.467, 837.208 514.249 C 838.113 513.159, 838.447 509.514, 838.322 502.096 C 838.222 496.198, 838.653 490.035, 839.292 488.195 C 840.182 485.635, 840.163 484.719, 839.207 484.128 C 838.261 483.543, 838.166 480.455, 838.800 470.932 C 839.447 461.208, 839.340 458.046, 838.306 456.414 C 837.550 455.221, 837.228 453.080, 837.553 451.414 C 837.866 449.811, 837.385 443.100, 836.485 436.500 C 835.585 429.900, 834.458 421.565, 833.980 417.978 C 832.789 409.033, 832.323 408.074, 829.424 408.600 C 827.554 408.939, 827 408.604, 827 407.136 C 827 406.090, 827.831 405.016, 828.846 404.750 C 830.334 404.361, 830.585 403.609, 830.138 400.884 L 829.584 397.500 828.924 401 C 828.252 404.559, 827.935 404.367, 827.504 400.140 C 827.371 398.842, 826.730 397.451, 826.078 397.049 C 825.427 396.646, 825.006 395.908, 825.143 395.408 C 825.384 394.528, 824.387 385.611, 823.364 379.500 C 823.088 377.850, 822.692 375.375, 822.484 374 C 815.190 325.838, 793.611 271.760, 763.426 226 C 759.617 220.225, 756.244 215.275, 755.930 215 C 755.617 214.725, 753.398 211.800, 751 208.500 C 748.602 205.200, 746.383 202.275, 746.070 202 C 745.756 201.725, 743.255 198.800, 740.511 195.500 C 737.767 192.200, 735.067 189.007, 734.511 188.403 C 733.955 187.800, 731.025 184.459, 728 180.978 C 724.975 177.497, 721.341 173.490, 719.925 172.074 C 712.369 164.520, 700.646 153.487, 697.204 150.689 C 695.046 148.935, 689.496 144.350, 684.872 140.500 C 680.247 136.650, 675.047 132.502, 673.316 131.283 C 647.920 113.389, 638.094 107.434, 614.723 95.772 C 587.137 82.007, 563.494 73.430, 534 66.488 C 519.692 63.120, 493.700 59.030, 477.500 57.597 C 465.662 56.550, 435.373 56.232, 422 57.014 M 0.441 444.500 C 0.442 460.450, 0.580 466.835, 0.748 458.689 C 0.916 450.543, 0.916 437.493, 0.747 429.689 C 0.579 421.885, 0.441 428.550, 0.441 444.500" stroke="none" fill="#ffffff" fill-rule="evenodd"/><path d="M 408.745 58.591 C 395.357 59.918, 370.982 63.685, 370.104 64.563 C 369.397 65.270, 370.901 65.090, 382.723 63.054 C 403.277 59.515, 417.721 58.499, 447 58.532 C 476.926 58.566, 487.901 59.415, 511.898 63.554 C 519.817 64.920, 526.479 65.855, 526.701 65.632 C 527.735 64.598, 494.965 59.548, 477.500 58.050 C 461.178 56.650, 425.501 56.931, 408.745 58.591 M 344.984 70.401 C 330.563 74.506, 313.749 80.083, 314.259 80.592 C 314.471 80.804, 318.887 79.552, 324.072 77.810 C 329.257 76.068, 339.575 72.948, 347 70.878 C 354.425 68.808, 359.600 67.116, 358.500 67.119 C 357.400 67.122, 351.318 68.599, 344.984 70.401 M 540 69.253 C 562.011 75.851, 574.250 79.880, 584.812 84.006 C 591.739 86.712, 597.570 88.763, 597.769 88.564 C 599.200 87.133, 541.987 67.684, 537.577 68.102 C 536.984 68.158, 538.075 68.676, 540 69.253 M 305.207 83.672 C 301.745 85.088, 299.082 86.415, 299.288 86.622 C 299.647 86.981, 312.055 82.227, 312.917 81.400 C 313.920 80.436, 311.044 81.284, 305.207 83.672 M 604 92 C 607.025 93.598, 609.950 94.906, 610.500 94.906 C 611.050 94.906, 609.025 93.598, 606 92 C 602.975 90.402, 600.050 89.094, 599.500 89.094 C 598.950 89.094, 600.975 90.402, 604 92 M 280 95 C 274.775 97.694, 270.950 99.898, 271.500 99.898 C 272.050 99.898, 276.775 97.694, 282 95 C 287.225 92.306, 291.050 90.102, 290.500 90.102 C 289.950 90.102, 285.225 92.306, 280 95 M 258 106.543 C 251.675 110.132, 245.375 114.002, 244 115.143 C 241.544 117.180, 241.562 117.180, 245 115.103 C 246.925 113.940, 253.338 110.250, 259.250 106.903 C 268.389 101.729, 271.079 99.963, 269.750 100.009 C 269.613 100.013, 264.325 102.954, 258 106.543 M 622 100.290 C 622 100.539, 627.063 103.595, 633.250 107.081 C 657.921 120.981, 683.997 140.207, 705.401 160.278 C 711.397 165.900, 716.797 170.673, 717.401 170.885 C 718.801 171.376, 701.708 155.217, 692.500 147.345 C 681.798 138.195, 666.703 127.044, 652.420 117.735 C 640.115 109.715, 622 99.327, 622 100.290 M 231.841 122.823 C 192.597 149.603, 155.159 187.292, 129.354 226 C 123.168 235.279, 122.742 236, 123.453 236 C 123.768 236, 125.677 233.412, 127.696 230.250 C 140.541 210.129, 157.084 189.868, 176.967 169.906 C 196.884 149.910, 211.185 138.138, 239.053 118.802 C 240.399 117.869, 241.247 117.081, 240.937 117.052 C 240.628 117.024, 236.535 119.620, 231.841 122.823 M 721.648 176.250 C 730.392 185.393, 732.600 187.935, 742.711 200.500 C 748.464 207.650, 757.482 220.025, 762.749 228 C 772.353 242.542, 776.364 247.979, 771.970 240.500 C 765.591 229.645, 752.594 211.187, 742.045 198 C 734.369 188.406, 719.645 172.166, 718.542 172.077 C 718.015 172.035, 719.413 173.912, 721.648 176.250 M 405.500 225.101 C 392.487 226.302, 380.046 228.107, 379.628 228.854 C 379.295 229.450, 380.352 239.413, 384.363 273.500 C 385.205 280.650, 387.043 296.400, 388.448 308.500 C 389.853 320.600, 391.424 333.875, 391.939 338 C 392.454 342.125, 393.878 353.938, 395.102 364.250 L 397.329 383 407.119 383 L 416.909 383 417.453 379.750 C 417.753 377.962, 418.697 368.850, 419.551 359.500 C 422.999 321.769, 424.043 310.559, 425.523 295.373 C 426.374 286.643, 427.512 274.550, 428.052 268.500 C 428.593 262.450, 429.712 250.385, 430.539 241.689 C 431.366 232.992, 431.781 225.455, 431.462 224.939 C 430.783 223.840, 418.313 223.918, 405.500 225.101 M 440 226.345 C 440 227.084, 438.853 239.797, 437.451 254.595 C 434.488 285.874, 433.331 298.308, 431.970 313.500 C 431.428 319.550, 430.521 329, 429.953 334.500 C 428.090 352.554, 427.020 364.354, 426.366 374.050 L 425.722 383.600 433.964 385.371 C 438.497 386.345, 442.794 387.368, 443.513 387.643 C 444.272 387.935, 445.105 387.172, 445.501 385.822 C 445.876 384.545, 448.594 375.850, 451.541 366.500 C 454.488 357.150, 463.478 328.575, 471.519 303 C 479.560 277.425, 487.682 251.612, 489.569 245.639 C 491.456 239.665, 493 234.426, 493 233.996 C 493 232.831, 490.538 232.080, 479.504 229.878 C 457.380 225.464, 440 223.910, 440 226.345 M 363 232.176 C 351.098 235.266, 325.028 244.413, 321.237 246.829 C 320.285 247.436, 323.284 256.498, 333.395 283.567 C 340.777 303.330, 352.523 334.800, 359.497 353.500 C 366.471 372.200, 372.251 387.577, 372.343 387.671 C 372.625 387.962, 388.212 384.122, 388.690 383.643 C 388.938 383.395, 388.440 377.186, 387.583 369.846 C 382.890 329.665, 378.638 293.736, 376.005 272 C 374.373 258.525, 372.744 244.125, 372.385 240 C 372.026 235.875, 371.455 231.989, 371.116 231.364 C 370.672 230.546, 368.406 230.772, 363 232.176 M 499.625 240.750 C 498.780 243.363, 491.287 267.100, 482.973 293.500 C 474.659 319.900, 465.147 350.050, 461.834 360.500 C 454.095 384.911, 452.620 389.963, 453.105 390.395 C 454.853 391.955, 470.570 397.830, 471.230 397.170 C 471.694 396.706, 481.195 380.165, 492.342 360.413 C 503.489 340.661, 521.247 309.318, 531.805 290.762 C 542.362 272.206, 551 256.576, 551 256.029 C 551 255.481, 548.862 253.955, 546.250 252.636 C 535.347 247.131, 506.041 236, 502.453 236 C 501.742 236, 500.470 238.137, 499.625 240.750 M 115.170 248.750 C 110.358 257.039, 106.811 264, 107.399 264 C 107.640 264, 109.974 260.063, 112.585 255.250 C 115.196 250.438, 117.984 245.488, 118.781 244.250 C 119.578 243.012, 119.973 242, 119.659 242 C 119.345 242, 117.325 245.037, 115.170 248.750 M 302 256.300 C 291.661 262.045, 276.558 272.047, 271 276.830 C 267.740 279.635, 267.596 280.002, 268.894 282.171 C 270.460 284.789, 286.680 307.580, 317.522 350.500 C 328.983 366.450, 341.092 383.421, 344.431 388.214 C 347.769 393.006, 350.950 396.954, 351.500 396.987 C 353.443 397.103, 363.995 391.484, 363.998 390.333 C 363.999 389.691, 357.671 372.141, 349.935 351.333 C 334.136 308.838, 315.272 257.916, 313.786 253.750 C 313.246 252.238, 312.511 251.005, 312.152 251.011 C 311.793 251.017, 307.225 253.397, 302 256.300 M 556.688 263.251 C 555.370 265.588, 549.564 275.825, 543.785 286 C 538.006 296.175, 529.089 311.925, 523.970 321 C 516.167 334.833, 486.351 387.451, 479.842 398.876 C 478.784 400.733, 478.050 402.344, 478.209 402.457 C 478.369 402.569, 482.048 405.086, 486.384 408.049 L 494.269 413.436 499.384 407.940 C 502.198 404.917, 510.847 395.256, 518.605 386.472 C 556.550 343.505, 566.848 331.875, 573.478 324.500 C 577.434 320.100, 584.626 312, 589.461 306.500 C 594.297 301, 599.833 294.765, 601.765 292.644 C 603.696 290.524, 604.855 288.499, 604.340 288.144 C 603.825 287.790, 599.903 284.884, 595.625 281.686 C 587.528 275.634, 570.563 264.858, 563.292 261.149 L 559.083 259.002 556.688 263.251 M 787.094 269.500 C 787.094 270.050, 788.402 272.975, 790 276 C 791.598 279.025, 792.906 281.050, 792.906 280.500 C 792.906 279.950, 791.598 277.025, 790 274 C 788.402 270.975, 787.094 268.950, 787.094 269.500 M 101.189 275.549 C 98.176 281.749, 98.512 282.617, 101.615 276.652 C 103.003 273.986, 103.967 271.633, 103.757 271.424 C 103.548 271.215, 102.392 273.071, 101.189 275.549 M 794.025 284.500 C 794.561 285.875, 795.463 288.187, 796.028 289.639 C 796.593 291.090, 797.274 292.060, 797.540 291.793 C 797.806 291.527, 797.098 289.215, 795.965 286.655 C 793.819 281.803, 792.326 280.145, 794.025 284.500 M 94.091 291.591 C 92.329 295.788, 91.054 299.388, 91.258 299.591 C 91.461 299.795, 93.064 296.522, 94.818 292.318 C 96.573 288.114, 97.848 284.514, 97.651 284.318 C 97.455 284.121, 95.853 287.394, 94.091 291.591 M 246.836 298.219 C 239.409 305.524, 231.021 314.246, 228.195 317.603 L 223.057 323.705 225.279 325.693 C 226.500 326.786, 233.125 331.907, 240 337.072 C 246.875 342.237, 258.585 351.421, 266.022 357.481 C 273.459 363.542, 281.559 370.139, 284.022 372.142 C 286.485 374.145, 298.608 384.119, 310.963 394.306 L 333.426 412.829 339.237 407.795 C 343.068 404.476, 344.749 402.376, 344.171 401.631 C 343.689 401.009, 338.800 394.200, 333.307 386.500 C 303.405 344.584, 261.694 286.397, 261.064 285.719 C 260.665 285.290, 254.262 290.915, 246.836 298.219 M 798.644 294.996 C 799 296.369, 800.126 299.294, 801.147 301.496 C 802.168 303.698, 802.712 304.377, 802.356 303.004 C 802 301.631, 800.874 298.706, 799.853 296.504 C 798.832 294.302, 798.288 293.623, 798.644 294.996 M 581.873 327.205 C 534.071 381.211, 514.913 402.885, 507.643 411.187 L 500.786 419.016 507.061 425.758 C 510.512 429.466, 513.699 432.646, 514.142 432.824 C 514.989 433.166, 518.875 430.353, 590.656 377.448 C 615.320 359.270, 638.987 341.975, 643.250 339.015 C 647.513 336.055, 650.998 333.378, 650.994 333.066 C 650.985 332.103, 621.777 302.749, 616.362 298.260 L 611.247 294.020 581.873 327.205 M 87.079 309.594 C 85.348 314.379, 84.062 318.685, 84.221 319.163 C 84.381 319.642, 85.962 315.891, 87.736 310.830 C 89.509 305.768, 90.795 301.462, 90.594 301.260 C 90.392 301.059, 88.811 304.809, 87.079 309.594 M 803.309 307.364 C 803.597 308.114, 805.514 313.971, 807.568 320.379 C 809.622 326.788, 811.483 331.851, 811.703 331.631 C 812.237 331.096, 804.049 306, 803.340 306 C 803.035 306, 803.022 306.614, 803.309 307.364 M 77.690 339.654 C 76.211 345.161, 75.032 350.304, 75.071 351.083 C 75.109 351.862, 76.447 347.775, 78.044 342 C 79.640 336.225, 80.819 331.082, 80.664 330.571 C 80.508 330.061, 79.170 334.148, 77.690 339.654 M 211.846 340.249 C 207.129 347.528, 193 374.417, 193 376.115 C 193 376.468, 194.463 377.342, 196.250 378.056 C 198.037 378.770, 201.750 380.334, 204.500 381.532 C 207.250 382.729, 216.925 386.763, 226 390.495 C 245.896 398.678, 259.601 404.649, 288 417.508 C 299.825 422.862, 311.819 428.288, 314.653 429.566 L 319.807 431.889 323.903 425.788 C 326.156 422.433, 327.977 419.420, 327.949 419.094 C 327.851 417.970, 279.982 379.500, 278.992 379.750 C 278.446 379.888, 278.112 379.604, 278.250 379.120 C 278.747 377.372, 220.994 332, 218.272 332 C 217.678 332, 214.787 335.712, 211.846 340.249 M 813 337.423 C 813 337.656, 814.325 343.394, 815.944 350.173 C 817.564 356.953, 819.353 364.525, 819.920 367 L 820.952 371.500 820.446 367 C 819.871 361.888, 814.034 337, 813.409 337 C 813.184 337, 813 337.191, 813 337.423 M 642.416 349.809 C 631.043 357.800, 612.980 370.891, 598 382 C 594.216 384.806, 572.721 400.668, 562.043 408.534 C 533.174 429.799, 519.855 439.875, 519.856 440.448 C 519.857 440.801, 522.124 444.661, 524.894 449.024 L 529.931 456.958 534.216 455.120 C 536.572 454.109, 545.025 450.336, 553 446.736 C 560.975 443.136, 574.475 437.044, 583 433.199 C 591.525 429.354, 600.975 425.090, 604 423.724 C 632.029 411.071, 640.610 407.302, 654.500 401.549 C 684.823 388.989, 688 387.577, 688 386.661 C 688 383.241, 662.846 345.437, 657.762 341.218 C 656.604 340.257, 653.688 341.889, 642.416 349.809 M 72.571 361.571 C 71.630 366.313, 71.052 370.385, 71.288 370.621 C 71.524 370.857, 72.487 367.170, 73.429 362.429 C 74.370 357.687, 74.948 353.615, 74.712 353.379 C 74.476 353.143, 73.513 356.830, 72.571 361.571 M 821.036 375.750 C 821.489 377.813, 822.660 385.800, 823.638 393.500 C 825.660 409.416, 826.129 462.476, 824.370 476.250 C 823.826 480.512, 823.700 484, 824.090 484 C 825.354 484, 825.941 475.033, 826.579 446 C 827.080 423.220, 826.879 414.426, 825.579 402.183 C 823.536 382.947, 821.849 372, 820.927 372 C 820.534 372, 820.583 373.688, 821.036 375.750 M 68.121 388.212 C 64.884 414.696, 64.080 444.448, 65.992 467 C 67.153 480.681, 70.140 503.194, 70.718 502.615 C 70.943 502.390, 70.107 494.622, 68.860 485.353 C 65.857 463.019, 65.582 418.825, 68.299 395.114 C 69.268 386.652, 69.881 379.547, 69.659 379.326 C 69.438 379.104, 68.746 383.103, 68.121 388.212 M 189.158 386.750 C 187.491 389.947, 183.154 406.349, 181.026 417.500 C 179.872 423.550, 178.719 429.477, 178.464 430.671 C 177.905 433.293, 176.851 433.029, 203.500 436.941 C 231.185 441.005, 272.596 447.461, 290.329 450.477 C 311.438 454.068, 310.147 454.303, 313.325 446.293 C 314.788 442.604, 315.652 439.291, 315.243 438.930 C 312.541 436.546, 193.693 385, 190.898 385 C 190.443 385, 189.660 385.788, 189.158 386.750 M 674.500 402.108 C 643.010 415.175, 631.662 420.130, 586 440.745 C 560.975 452.043, 538.990 461.923, 537.144 462.701 C 533.274 464.332, 533.163 463.127, 538.727 479.819 L 542.500 491.138 545.500 490.586 C 547.150 490.282, 551.200 489.405, 554.500 488.638 C 572.869 484.365, 601.552 477.654, 608.500 476.002 C 627.728 471.432, 643.784 467.801, 661.500 464.016 C 690.124 457.901, 713.474 452.791, 713.712 452.589 C 713.828 452.491, 712.855 448.605, 711.549 443.955 C 705.964 424.067, 694.462 394.945, 692.224 395.026 C 691.826 395.041, 683.850 398.227, 674.500 402.108 M 379.827 411.320 C 373.370 412.951, 373.124 413.642, 378.704 414.475 C 387.550 415.794, 403.375 421.846, 411.897 427.168 C 413.003 427.859, 414.081 428.216, 414.291 427.962 C 414.502 427.708, 415.890 424.165, 417.375 420.089 C 419.322 414.748, 419.773 412.373, 418.989 411.589 C 417.437 410.035, 385.773 409.818, 379.827 411.320 M 427.472 415.822 C 427.095 416.745, 425.549 421.105, 424.038 425.510 L 421.289 433.521 427.723 440.510 C 431.261 444.355, 435.289 449.413, 436.673 451.750 C 438.057 454.087, 439.325 456, 439.489 456 C 440.495 456, 462.500 435.621, 462.500 434.689 C 462.500 431.822, 442.289 419.130, 431.868 415.454 C 428.576 414.292, 428.081 414.334, 427.472 415.822 M 460 448.710 C 455.325 452.896, 449.605 458.042, 447.289 460.145 L 443.078 463.969 444.619 468.235 C 445.466 470.581, 446.416 476.030, 446.729 480.345 C 447.297 488.171, 447.305 488.189, 449.899 487.615 C 463.867 484.524, 490.191 478.143, 490.580 477.754 C 491.338 476.996, 487.299 467.320, 482.863 459.268 C 478.932 452.130, 470.546 440.953, 469.195 441.050 C 468.813 441.077, 464.675 444.524, 460 448.710 M 177.607 443.582 C 176.279 447.043, 177.805 480.390, 179.623 487.633 C 180.232 490.059, 180.497 490.142, 185.879 489.604 C 188.971 489.295, 198.700 488.352, 207.500 487.509 C 216.300 486.667, 234.975 484.841, 249 483.452 C 263.025 482.063, 278.775 480.506, 284 479.992 C 306.219 477.808, 305.813 477.887, 306.364 475.615 C 306.647 474.452, 307.179 470.773, 307.546 467.440 L 308.215 461.379 299.858 460.124 C 295.261 459.434, 280.700 457.136, 267.500 455.019 C 254.300 452.901, 234.050 449.771, 222.500 448.062 C 210.950 446.354, 197.394 444.291, 192.376 443.478 C 180.808 441.604, 178.359 441.621, 177.607 443.582 M 822.192 493.501 C 818.735 517.791, 810.848 548.132, 801.988 571.224 C 795.421 588.340, 795.370 588.507, 796.997 587.502 C 797.873 586.961, 798.068 587.080, 797.585 587.862 C 797.187 588.506, 796.487 588.801, 796.028 588.517 C 794.946 587.848, 792.826 593.909, 793.666 595.269 C 794.020 595.841, 793.859 596.031, 793.309 595.691 C 791.960 594.857, 787.539 604.445, 788.532 606.051 C 789.008 606.823, 788.903 607.058, 788.259 606.660 C 786.999 605.881, 785.719 608.736, 786.651 610.245 C 787.013 610.830, 786.847 611.024, 786.283 610.675 C 785.715 610.324, 783.784 612.821, 781.957 616.270 C 777.341 624.982, 763.663 647.272, 758.340 654.756 C 755.869 658.230, 754.205 661.523, 754.599 662.161 C 755.025 662.850, 754.869 663.037, 754.208 662.629 C 752.887 661.812, 747.816 668.893, 748.699 670.322 C 749.034 670.865, 748.843 671.021, 748.273 670.669 C 747.703 670.317, 745.721 671.916, 743.869 674.222 C 729.455 692.166, 705.103 717.099, 688.806 730.601 C 670.032 746.154, 641.022 765.436, 622.023 774.989 C 617.496 777.264, 614.032 779.365, 614.324 779.657 C 614.841 780.174, 620.656 777.172, 636 768.468 C 655.725 757.279, 674.792 743.997, 690.432 730.552 C 694.348 727.186, 697.535 725.105, 697.757 725.771 C 698.224 727.173, 703 724.404, 703 722.730 C 703 722.158, 702.177 722.435, 701.171 723.345 C 700.165 724.255, 699.021 725, 698.627 725 C 698.234 725, 705.250 717.688, 714.219 708.750 C 723.187 699.813, 733.216 689.271, 736.504 685.325 C 742.831 677.733, 745.545 675.916, 739.850 683.085 C 734.889 689.330, 724.758 700.235, 713.750 711.181 C 704.127 720.748, 703.035 722.286, 705 723.500 C 705.550 723.840, 706 723.402, 706 722.528 C 706 721.653, 706.788 720.644, 707.750 720.286 C 710.970 719.088, 714.928 715.693, 714.297 714.671 C 713.926 714.071, 714.327 713.912, 715.285 714.279 C 716.488 714.741, 716.743 714.466, 716.290 713.199 C 715.955 712.265, 716.006 711.790, 716.402 712.145 C 716.799 712.500, 718.286 711.712, 719.708 710.395 C 721.129 709.078, 722.901 708, 723.646 708 C 724.391 708, 725 707.547, 725 706.994 C 725 706.441, 727.025 703.992, 729.500 701.552 C 731.975 699.112, 734 696.712, 734 696.218 C 734 695.725, 735.183 694.782, 736.629 694.123 C 738.075 693.464, 739 692.667, 738.685 692.351 C 738.369 692.036, 739.412 690.683, 741.002 689.345 C 742.592 688.007, 744.172 686.032, 744.514 684.956 C 744.855 683.880, 745.765 683, 746.536 683 C 747.371 683, 747.705 682.394, 747.362 681.500 C 747.024 680.620, 747.348 680, 748.146 680 C 749.801 680, 753.954 675.667, 756.533 671.250 C 757.577 669.462, 758.747 668, 759.134 668 C 760.191 668, 764.537 660.650, 764.160 659.500 C 763.981 658.950, 764.162 658.828, 764.563 659.230 C 765.266 659.933, 775.356 645.591, 777.037 641.500 C 777.488 640.400, 779.008 638.200, 780.414 636.612 C 781.820 635.023, 783.518 632.210, 784.186 630.362 C 784.855 628.513, 785.716 627, 786.100 627 C 786.923 627, 791 619.416, 791 617.884 C 791 617.304, 792.307 614.055, 793.905 610.664 C 801.458 594.637, 804 588.776, 804 587.388 C 804 586.541, 804.485 586.182, 805.107 586.566 C 805.852 587.027, 805.993 586.555, 805.539 585.122 C 805.129 583.833, 805.628 581.319, 806.804 578.747 C 809.389 573.088, 811 567.857, 811 565.120 C 811 563.693, 811.415 563.139, 812.146 563.590 C 812.948 564.086, 813.099 563.529, 812.648 561.732 C 812.293 560.320, 812.400 559.016, 812.885 558.833 C 813.370 558.650, 814.039 556.025, 814.370 553 C 814.955 547.667, 814.929 547.591, 813.532 550.500 C 812.739 552.150, 812.070 554.314, 812.045 555.309 C 812.020 556.304, 811.550 556.840, 811 556.500 C 810.450 556.160, 810 556.359, 810 556.941 C 810 557.523, 809.592 558, 809.094 558 C 808.595 558, 808.423 557.100, 808.710 556 C 808.998 554.900, 809.589 554, 810.023 554 C 810.457 554, 810.591 552.987, 810.320 551.750 C 809.912 549.891, 810.027 549.761, 810.979 551 C 811.911 552.213, 812.010 552.022, 811.500 550 C 810.988 547.971, 811.088 547.783, 812.029 549 C 813.022 550.284, 813.107 550.247, 812.623 548.743 C 812.312 547.777, 813.337 541.918, 814.902 535.723 C 816.467 529.528, 818.068 522.554, 818.462 520.225 C 818.903 517.614, 819.586 516.244, 820.243 516.650 C 820.873 517.040, 821.016 516.835, 820.594 516.151 C 820.200 515.515, 820.844 508.951, 822.026 501.566 C 823.207 494.181, 824.016 487.320, 823.823 486.320 C 823.630 485.319, 822.896 488.551, 822.192 493.501 M 283 488.096 C 273.925 489.107, 252.325 491.295, 235 492.960 C 217.675 494.624, 199 496.428, 193.500 496.967 C 188 497.507, 183.162 497.960, 182.750 497.974 C 181.224 498.027, 182.092 503.187, 185.537 514.553 C 189.785 528.567, 194.934 541.159, 196.118 540.427 C 196.591 540.135, 196.711 540.591, 196.385 541.440 C 196.040 542.339, 196.443 543.233, 197.351 543.581 C 198.208 543.910, 211.628 539.157, 227.173 533.020 C 255.341 521.899, 304.785 501.252, 306.294 499.981 C 306.730 499.613, 306.781 496.317, 306.406 492.656 L 305.724 486 302.612 486.130 C 300.900 486.201, 292.075 487.086, 283 488.096 M 469.500 491.191 C 457.950 493.910, 448.150 496.477, 447.722 496.895 C 447.294 497.313, 446.506 500.380, 445.969 503.710 C 445.433 507.041, 444.334 511.637, 443.526 513.925 C 442.399 517.120, 442.342 518.180, 443.279 518.495 C 444.385 518.867, 455.662 521.229, 484.773 527.186 C 490.423 528.342, 495.373 528.960, 495.773 528.559 C 496.982 527.347, 496.490 503.068, 495.077 494.250 C 494.033 487.731, 493.414 486.026, 492.128 486.124 C 491.232 486.192, 481.050 488.473, 469.500 491.191 M 283.500 518.635 C 259.301 529.140, 251.506 532.337, 220.500 544.476 C 211.150 548.136, 203.102 551.522, 202.616 551.999 C 201.506 553.090, 205.046 559.188, 213.129 570.108 C 219.664 578.936, 230.687 591, 232.219 591 C 233.659 591, 257.468 570.515, 286.722 544.106 L 313.745 519.713 311.478 514.142 C 310.232 511.078, 308.827 508.491, 308.356 508.394 C 307.885 508.296, 296.700 512.905, 283.500 518.635 M 72.198 511 C 72.191 513.805, 74.720 524.346, 74.838 522 C 74.879 521.175, 74.303 517.800, 73.559 514.500 C 72.814 511.200, 72.202 509.625, 72.198 511 M 437.716 527.298 C 437.442 528.012, 434.870 531.660, 432 535.404 C 427.654 541.074, 427.010 542.424, 428.141 543.488 C 430.151 545.378, 476.765 577.973, 478.299 578.561 C 480.682 579.476, 490.326 557.521, 493.397 544.190 C 494.489 539.448, 494.559 537.773, 493.675 537.448 C 492.641 537.068, 439.322 526, 438.525 526 C 438.354 526, 437.990 526.584, 437.716 527.298 M 291 551.138 C 276.425 564.390, 258.762 580.172, 251.750 586.210 C 244.738 592.248, 239 597.400, 239 597.659 C 239 599.463, 260.908 615.175, 262.260 614.339 C 262.837 613.983, 263.018 614.161, 262.663 614.736 C 262.096 615.654, 272.748 622.863, 277.070 624.486 C 278.208 624.914, 279.429 623.618, 281.498 619.788 C 283.070 616.880, 291.184 602.350, 299.528 587.500 C 307.873 572.650, 316.172 557.800, 317.970 554.500 C 319.768 551.200, 322.536 546.195, 324.120 543.378 C 325.704 540.561, 327 538.012, 327 537.714 C 327 537.415, 325.212 535.220, 323.027 532.836 C 320.841 530.451, 319.041 528.163, 319.027 527.750 C 319.012 527.337, 318.663 527.010, 318.250 527.022 C 317.837 527.034, 305.575 537.886, 291 551.138 M 76.080 528.764 C 75.963 530.624, 81.322 549.553, 81.651 548.444 C 81.806 547.925, 80.633 543, 79.046 537.500 C 77.458 532, 76.123 528.069, 76.080 528.764 M 325.308 557.787 C 320.823 565.879, 310.145 585.100, 301.580 600.500 C 293.016 615.900, 286.006 628.746, 286.004 629.047 C 285.991 630.907, 317.463 642.091, 327 643.616 L 330.682 644.205 332.348 633.852 C 334.251 622.025, 336.179 611.068, 339.009 596 C 341.945 580.370, 347 552.362, 347 551.726 C 347 551.421, 345.087 550.097, 342.750 548.784 C 340.413 547.472, 337.367 545.650, 335.981 544.736 L 333.463 543.073 325.308 557.787 M 412.759 551.901 C 409.052 553.962, 405.738 555.929, 405.395 556.272 C 404.937 556.729, 432.800 603.766, 441.908 617.910 C 443.657 620.626, 462.851 603.169, 471.648 590.862 L 474.796 586.457 467.148 581.060 C 435.747 558.901, 420.126 548.011, 419.837 548.077 C 419.652 548.119, 416.467 549.840, 412.759 551.901 M 354.578 556.137 C 354.118 557.545, 340.517 633.293, 339.408 640.624 C 339.033 643.106, 339.203 645.007, 339.835 645.398 C 342.475 647.030, 382.828 645.596, 384.503 643.811 C 384.664 643.640, 384.423 641.025, 383.969 638 C 383.514 634.975, 381.508 621.475, 379.511 608 C 374.313 572.940, 372.074 559.661, 371.235 558.926 C 370.831 558.572, 368.025 557.781, 365 557.169 C 361.975 556.558, 358.493 555.768, 357.262 555.415 C 355.801 554.996, 354.870 555.246, 354.578 556.137 M 381 561.538 C 381 562.933, 383.234 578.796, 385.965 596.788 C 388.696 614.779, 391.221 631.805, 391.577 634.622 C 391.933 637.439, 392.574 640.310, 393.002 641.003 C 394.502 643.431, 413.922 636.249, 429.675 627.439 L 435.918 623.948 433.101 619.224 C 431.552 616.626, 425.198 606.175, 418.980 596 C 412.763 585.825, 405.186 573.337, 402.143 568.250 L 396.610 559 388.805 559 C 381.115 559, 381 559.038, 381 561.538 M 93.065 581.241 C 92.966 582.367, 99.235 596.099, 99.655 595.678 C 99.858 595.476, 98.472 591.978, 96.577 587.905 C 94.681 583.832, 93.101 580.834, 93.065 581.241 M 100.094 597.500 C 100.094 598.050, 101.402 600.975, 103 604 C 104.598 607.025, 105.906 609.050, 105.906 608.500 C 105.906 607.950, 104.598 605.025, 103 602 C 101.402 598.975, 100.094 596.950, 100.094 597.500 M 109.500 617 C 110.894 619.750, 112.259 622, 112.534 622 C 112.809 622, 111.894 619.750, 110.500 617 C 109.106 614.250, 107.741 612, 107.466 612 C 107.191 612, 108.106 614.250, 109.500 617 M 114.104 625.195 C 119.148 634.620, 135.389 659.505, 137.245 660.651 C 138.486 661.419, 138.349 661.195, 129.457 647.973 C 125.584 642.213, 120.470 634.237, 118.093 630.250 C 115.715 626.263, 113.581 623, 113.350 623 C 113.119 623, 113.458 623.988, 114.104 625.195 M 446.921 643.750 C 447.420 647.355, 447.454 647.384, 447.810 644.503 C 448.014 642.855, 448.702 641.174, 449.340 640.769 C 450.056 640.313, 449.716 640.025, 448.451 640.015 C 446.655 640.002, 446.466 640.465, 446.921 643.750 M 451.070 643.250 C 451.126 645.825, 451.300 646.094, 451.906 644.544 C 452.665 642.603, 452.679 642.603, 453.835 644.544 C 454.988 646.480, 455.012 646.480, 456.198 644.500 C 457.360 642.561, 457.418 642.576, 458.098 645 C 458.701 647.147, 458.815 646.970, 458.900 643.750 C 459 640.014, 457.456 638.647, 456.362 641.500 C 456.045 642.325, 455.384 643, 454.893 643 C 454.402 643, 454 642.325, 454 641.500 C 454 640.675, 453.325 640, 452.500 640 C 451.460 640, 451.022 640.997, 451.070 643.250 M 139.901 664.734 C 153.138 684.083, 184.584 716.798, 207.500 735.061 C 224.801 748.849, 261 772.928, 261 770.649 C 261 770.417, 257.738 768.308, 253.750 765.961 C 213.091 742.028, 177.716 711.045, 147.041 672.500 C 139.806 663.409, 136.634 659.958, 139.901 664.734 M 263 771.966 C 265.326 773.700, 278 780.087, 278 779.525 C 278 779.250, 274.738 777.336, 270.750 775.271 C 262.783 771.145, 260.717 770.264, 263 771.966 M 283 782.500 C 285.475 783.825, 287.950 784.910, 288.500 784.910 C 289.050 784.910, 287.475 783.825, 285 782.500 C 282.525 781.175, 280.050 780.090, 279.500 780.090 C 278.950 780.090, 280.525 781.175, 283 782.500 M 606 783 C 602.975 784.598, 600.950 785.906, 601.500 785.906 C 602.050 785.906, 604.975 784.598, 608 783 C 611.025 781.402, 613.050 780.094, 612.500 780.094 C 611.950 780.094, 609.025 781.402, 606 783 M 585.764 791.465 C 579.859 793.836, 573.784 796.107, 572.264 796.511 C 570.744 796.916, 570.008 797.435, 570.628 797.666 C 571.743 798.080, 598 788.261, 598 787.429 C 598 786.651, 596.608 787.110, 585.764 791.465 M 297 788.288 C 297 789.014, 315.158 796.175, 315.678 795.655 C 315.918 795.415, 312.601 793.863, 308.307 792.206 C 304.013 790.549, 299.712 788.876, 298.750 788.489 C 297.788 788.103, 297 788.012, 297 788.288 M 559 800.973 C 554.325 802.523, 551.039 803.838, 551.698 803.895 C 553.221 804.028, 569 799.068, 569 798.456 C 569 797.735, 568.028 797.980, 559 800.973 M 326 799.458 C 326 799.983, 339.259 804.038, 340.608 803.926 C 341.618 803.841, 328.051 799, 326.805 799 C 326.362 799, 326 799.206, 326 799.458 M 352.548 807.477 C 354.774 808.180, 358.599 809.025, 361.048 809.355 C 364.353 809.799, 363.697 809.458, 358.500 808.031 C 350.715 805.893, 346.209 805.474, 352.548 807.477 M 536 807.500 C 533.525 808.217, 532.400 808.813, 533.500 808.825 C 534.600 808.837, 537.300 808.253, 539.500 807.528 C 544.679 805.821, 541.872 805.799, 536 807.500 M 368 811 C 369.375 811.440, 371.625 811.792, 373 811.782 C 375.246 811.765, 375.195 811.686, 372.500 811 C 370.850 810.580, 368.600 810.228, 367.500 810.218 C 365.933 810.203, 366.041 810.373, 368 811 M 513.500 812.052 C 493.959 815.998, 476.625 817.387, 446.500 817.421 C 419.117 817.452, 407.049 816.653, 384.500 813.314 C 382.300 812.988, 380.725 812.970, 381 813.273 C 381.655 813.995, 401.450 816.644, 416 817.956 C 446.465 820.703, 496.645 817.662, 521 811.592 C 528.914 809.619, 524.076 809.916, 513.500 812.052" stroke="none" fill="#c9c36d" fill-rule="evenodd"/><path d="M 422 58.579 C 420.075 58.799, 412.937 59.460, 406.138 60.049 C 374.108 62.820, 334.445 72.703, 302.261 85.933 C 209.532 124.051, 134.377 198.314, 95.743 290 C 86.642 311.599, 77.750 340.254, 73.555 361.500 C 72.687 365.900, 71.754 370.625, 71.483 372 C 67.875 390.310, 65.631 423.550, 66.320 448.476 C 67.456 489.528, 74.305 527.137, 87.412 564.306 C 118.083 651.279, 181.293 726.015, 262 770.729 C 304.255 794.140, 353.095 809.758, 402.500 815.657 C 423.234 818.133, 469.484 818.125, 489.905 815.643 C 563.893 806.647, 631.992 777.540, 688.806 730.628 C 700.588 720.899, 729.260 692.261, 737.500 681.991 C 740.800 677.878, 744.323 673.610, 745.330 672.506 C 754.033 662.965, 778.132 624.634, 787.364 605.649 C 805.505 568.342, 818.777 523.906, 823.399 485 C 827.447 450.924, 826.243 404.001, 820.485 371.500 C 815.987 346.107, 804.929 308.435, 797.004 291.500 C 796.489 290.400, 794.987 287.025, 793.667 284 C 784.802 263.687, 777.090 249.661, 763.425 229 C 729.992 178.449, 686.821 137.914, 634.115 107.585 C 590.854 82.691, 542.522 66.759, 491 60.407 C 479.246 58.958, 430.087 57.656, 422 58.579 M 405.500 225.101 C 392.487 226.302, 380.046 228.107, 379.628 228.854 C 379.295 229.450, 380.352 239.413, 384.363 273.500 C 385.205 280.650, 387.043 296.400, 388.448 308.500 C 389.853 320.600, 391.424 333.875, 391.939 338 C 392.454 342.125, 393.878 353.938, 395.102 364.250 L 397.329 383 407.119 383 L 416.909 383 417.453 379.750 C 417.753 377.962, 418.697 368.850, 419.551 359.500 C 422.999 321.769, 424.043 310.559, 425.523 295.373 C 426.374 286.643, 427.512 274.550, 428.052 268.500 C 428.593 262.450, 429.712 250.385, 430.539 241.689 C 431.366 232.992, 431.781 225.455, 431.462 224.939 C 430.783 223.840, 418.313 223.918, 405.500 225.101 M 440 226.345 C 440 227.084, 438.853 239.797, 437.451 254.595 C 434.488 285.874, 433.331 298.308, 431.970 313.500 C 431.428 319.550, 430.521 329, 429.953 334.500 C 428.090 352.554, 427.020 364.354, 426.366 374.050 L 425.722 383.600 433.964 385.371 C 438.497 386.345, 442.794 387.368, 443.513 387.643 C 444.272 387.935, 445.105 387.172, 445.501 385.822 C 445.876 384.545, 448.594 375.850, 451.541 366.500 C 454.488 357.150, 463.478 328.575, 471.519 303 C 479.560 277.425, 487.682 251.612, 489.569 245.639 C 491.456 239.665, 493 234.426, 493 233.996 C 493 232.831, 490.538 232.080, 479.504 229.878 C 457.380 225.464, 440 223.910, 440 226.345 M 363 232.176 C 351.098 235.266, 325.028 244.413, 321.237 246.829 C 320.285 247.436, 323.284 256.498, 333.395 283.567 C 340.777 303.330, 352.523 334.800, 359.497 353.500 C 366.471 372.200, 372.251 387.577, 372.343 387.671 C 372.625 387.962, 388.212 384.122, 388.690 383.643 C 388.938 383.395, 388.440 377.186, 387.583 369.846 C 382.890 329.665, 378.638 293.736, 376.005 272 C 374.373 258.525, 372.744 244.125, 372.385 240 C 372.026 235.875, 371.455 231.989, 371.116 231.364 C 370.672 230.546, 368.406 230.772, 363 232.176 M 499.625 240.750 C 498.780 243.363, 491.287 267.100, 482.973 293.500 C 474.659 319.900, 465.147 350.050, 461.834 360.500 C 454.095 384.911, 452.620 389.963, 453.105 390.395 C 454.853 391.955, 470.570 397.830, 471.230 397.170 C 471.694 396.706, 481.195 380.165, 492.342 360.413 C 503.489 340.661, 521.247 309.318, 531.805 290.762 C 542.362 272.206, 551 256.576, 551 256.029 C 551 255.481, 548.862 253.955, 546.250 252.636 C 535.347 247.131, 506.041 236, 502.453 236 C 501.742 236, 500.470 238.137, 499.625 240.750 M 302 256.300 C 291.661 262.045, 276.558 272.047, 271 276.830 C 267.740 279.635, 267.596 280.002, 268.894 282.171 C 270.460 284.789, 286.680 307.580, 317.522 350.500 C 328.983 366.450, 341.092 383.421, 344.431 388.214 C 347.769 393.006, 350.950 396.954, 351.500 396.987 C 353.443 397.103, 363.995 391.484, 363.998 390.333 C 363.999 389.691, 357.671 372.141, 349.935 351.333 C 334.136 308.838, 315.272 257.916, 313.786 253.750 C 313.246 252.238, 312.511 251.005, 312.152 251.011 C 311.793 251.017, 307.225 253.397, 302 256.300 M 556.688 263.251 C 555.370 265.588, 549.564 275.825, 543.785 286 C 538.006 296.175, 529.089 311.925, 523.970 321 C 516.167 334.833, 486.351 387.451, 479.842 398.876 C 478.784 400.733, 478.050 402.344, 478.209 402.457 C 478.369 402.569, 482.048 405.086, 486.384 408.049 L 494.269 413.436 499.384 407.940 C 502.198 404.917, 510.847 395.256, 518.605 386.472 C 556.550 343.505, 566.848 331.875, 573.478 324.500 C 577.434 320.100, 584.626 312, 589.461 306.500 C 594.297 301, 599.833 294.765, 601.765 292.644 C 603.696 290.524, 604.855 288.499, 604.340 288.144 C 603.825 287.790, 599.903 284.884, 595.625 281.686 C 587.528 275.634, 570.563 264.858, 563.292 261.149 L 559.083 259.002 556.688 263.251 M 246.836 298.219 C 239.409 305.524, 231.021 314.246, 228.195 317.603 L 223.057 323.705 225.279 325.693 C 226.500 326.786, 233.125 331.907, 240 337.072 C 246.875 342.237, 258.585 351.421, 266.022 357.481 C 273.459 363.542, 281.559 370.139, 284.022 372.142 C 286.485 374.145, 298.608 384.119, 310.963 394.306 L 333.426 412.829 339.237 407.795 C 343.068 404.476, 344.749 402.376, 344.171 401.631 C 343.689 401.009, 338.800 394.200, 333.307 386.500 C 303.405 344.584, 261.694 286.397, 261.064 285.719 C 260.665 285.290, 254.262 290.915, 246.836 298.219 M 581.873 327.205 C 534.071 381.211, 514.913 402.885, 507.643 411.187 L 500.786 419.016 507.061 425.758 C 510.512 429.466, 513.699 432.646, 514.142 432.824 C 514.989 433.166, 518.875 430.353, 590.656 377.448 C 615.320 359.270, 638.987 341.975, 643.250 339.015 C 647.513 336.055, 650.998 333.378, 650.994 333.066 C 650.985 332.103, 621.777 302.749, 616.362 298.260 L 611.247 294.020 581.873 327.205 M 211.846 340.249 C 207.129 347.528, 193 374.417, 193 376.115 C 193 376.468, 194.463 377.342, 196.250 378.056 C 198.037 378.770, 201.750 380.334, 204.500 381.532 C 207.250 382.729, 216.925 386.763, 226 390.495 C 245.896 398.678, 259.601 404.649, 288 417.508 C 299.825 422.862, 311.819 428.288, 314.653 429.566 L 319.807 431.889 323.903 425.788 C 326.156 422.433, 327.978 419.420, 327.950 419.094 C 327.923 418.767, 311.659 405.225, 291.808 389 C 254.633 358.615, 220.378 332.043, 218.346 332.016 C 217.712 332.007, 214.787 335.712, 211.846 340.249 M 642.416 349.809 C 631.043 357.800, 612.980 370.891, 598 382 C 594.216 384.806, 572.721 400.668, 562.043 408.534 C 533.174 429.799, 519.855 439.875, 519.856 440.448 C 519.857 440.801, 522.124 444.661, 524.894 449.024 L 529.931 456.958 534.216 455.120 C 536.572 454.109, 545.025 450.336, 553 446.736 C 560.975 443.136, 574.475 437.044, 583 433.199 C 591.525 429.354, 600.975 425.090, 604 423.724 C 632.029 411.071, 640.610 407.302, 654.500 401.549 C 684.823 388.989, 688 387.577, 688 386.661 C 688 383.241, 662.846 345.437, 657.762 341.218 C 656.604 340.257, 653.688 341.889, 642.416 349.809 M 189.158 386.750 C 187.491 389.947, 183.154 406.349, 181.026 417.500 C 179.872 423.550, 178.719 429.477, 178.464 430.671 C 177.905 433.293, 176.851 433.029, 203.500 436.941 C 231.185 441.005, 272.596 447.461, 290.329 450.477 C 311.438 454.068, 310.147 454.303, 313.325 446.293 C 314.788 442.604, 315.652 439.291, 315.243 438.930 C 312.541 436.546, 193.693 385, 190.898 385 C 190.443 385, 189.660 385.788, 189.158 386.750 M 674.500 402.108 C 643.010 415.175, 631.662 420.130, 586 440.745 C 560.975 452.043, 538.990 461.923, 537.144 462.701 C 533.274 464.332, 533.163 463.127, 538.727 479.819 L 542.500 491.138 545.500 490.586 C 547.150 490.282, 551.200 489.405, 554.500 488.638 C 572.869 484.365, 601.552 477.654, 608.500 476.002 C 627.728 471.432, 643.784 467.801, 661.500 464.016 C 690.124 457.901, 713.474 452.791, 713.712 452.589 C 713.828 452.491, 712.855 448.605, 711.549 443.955 C 705.964 424.067, 694.462 394.945, 692.224 395.026 C 691.826 395.041, 683.850 398.227, 674.500 402.108 M 379.827 411.320 C 373.370 412.951, 373.124 413.642, 378.704 414.475 C 387.550 415.794, 403.375 421.846, 411.897 427.168 C 413.003 427.859, 414.081 428.216, 414.291 427.962 C 414.502 427.708, 415.890 424.165, 417.375 420.089 C 419.322 414.748, 419.773 412.373, 418.989 411.589 C 417.437 410.035, 385.773 409.818, 379.827 411.320 M 427.472 415.822 C 427.095 416.745, 425.549 421.105, 424.038 425.510 L 421.289 433.521 427.723 440.510 C 431.261 444.355, 435.289 449.413, 436.673 451.750 C 438.057 454.087, 439.325 456, 439.489 456 C 440.495 456, 462.500 435.621, 462.500 434.689 C 462.500 431.822, 442.289 419.130, 431.868 415.454 C 428.576 414.292, 428.081 414.334, 427.472 415.822 M 460 448.710 C 455.325 452.896, 449.605 458.042, 447.289 460.145 L 443.078 463.969 444.619 468.235 C 445.466 470.581, 446.416 476.030, 446.729 480.345 C 447.297 488.171, 447.305 488.189, 449.899 487.615 C 463.867 484.524, 490.191 478.143, 490.580 477.754 C 491.338 476.996, 487.299 467.320, 482.863 459.268 C 478.932 452.130, 470.546 440.953, 469.195 441.050 C 468.813 441.077, 464.675 444.524, 460 448.710 M 177.607 443.582 C 176.279 447.043, 177.805 480.390, 179.623 487.633 C 180.232 490.059, 180.497 490.142, 185.879 489.604 C 188.971 489.295, 198.700 488.352, 207.500 487.509 C 216.300 486.667, 234.975 484.841, 249 483.452 C 263.025 482.063, 278.775 480.506, 284 479.992 C 306.219 477.808, 305.813 477.887, 306.364 475.615 C 306.647 474.452, 307.179 470.773, 307.546 467.440 L 308.215 461.379 299.858 460.124 C 295.261 459.434, 280.700 457.136, 267.500 455.019 C 254.300 452.901, 234.050 449.771, 222.500 448.062 C 210.950 446.354, 197.394 444.291, 192.376 443.478 C 180.808 441.604, 178.359 441.621, 177.607 443.582 M 283 488.096 C 273.925 489.107, 252.325 491.295, 235 492.960 C 217.675 494.624, 199 496.428, 193.500 496.967 C 188 497.507, 183.162 497.960, 182.750 497.974 C 181.221 498.027, 182.095 503.198, 185.577 514.692 C 189.767 528.523, 195.766 542.973, 197.613 543.682 C 199.634 544.457, 302.686 503.020, 306.294 499.981 C 306.730 499.613, 306.781 496.317, 306.406 492.656 L 305.724 486 302.612 486.130 C 300.900 486.201, 292.075 487.086, 283 488.096 M 469.500 491.191 C 457.950 493.910, 448.150 496.477, 447.722 496.895 C 447.294 497.313, 446.506 500.380, 445.969 503.710 C 445.433 507.041, 444.334 511.637, 443.526 513.925 C 442.399 517.120, 442.342 518.180, 443.279 518.495 C 444.385 518.867, 455.662 521.229, 484.773 527.186 C 490.423 528.342, 495.373 528.960, 495.773 528.559 C 496.982 527.347, 496.490 503.068, 495.077 494.250 C 494.033 487.731, 493.414 486.026, 492.128 486.124 C 491.232 486.192, 481.050 488.473, 469.500 491.191 M 283.500 518.635 C 259.301 529.140, 251.506 532.337, 220.500 544.476 C 211.150 548.136, 203.102 551.522, 202.616 551.999 C 201.506 553.090, 205.046 559.188, 213.129 570.108 C 219.664 578.936, 230.687 591, 232.219 591 C 233.659 591, 257.468 570.515, 286.722 544.106 L 313.745 519.713 311.478 514.142 C 310.232 511.078, 308.827 508.491, 308.356 508.394 C 307.885 508.296, 296.700 512.905, 283.500 518.635 M 437.716 527.298 C 437.442 528.012, 434.870 531.660, 432 535.404 C 427.654 541.074, 427.010 542.424, 428.141 543.488 C 430.151 545.378, 476.765 577.973, 478.299 578.561 C 480.682 579.476, 490.326 557.521, 493.397 544.190 C 494.489 539.448, 494.559 537.773, 493.675 537.448 C 492.641 537.068, 439.322 526, 438.525 526 C 438.354 526, 437.990 526.584, 437.716 527.298 M 291 551.138 C 276.425 564.390, 258.762 580.172, 251.750 586.210 C 244.738 592.248, 239 597.400, 239 597.659 C 239 599.764, 275.022 625, 278.028 625 C 278.388 625, 279.959 622.638, 281.519 619.750 C 283.079 616.862, 291.184 602.350, 299.528 587.500 C 307.873 572.650, 316.172 557.800, 317.970 554.500 C 319.768 551.200, 322.536 546.195, 324.120 543.378 C 325.704 540.561, 327 538.012, 327 537.714 C 327 537.415, 325.212 535.220, 323.027 532.836 C 320.841 530.451, 319.041 528.163, 319.027 527.750 C 319.012 527.337, 318.663 527.010, 318.250 527.022 C 317.837 527.034, 305.575 537.886, 291 551.138 M 325.308 557.787 C 320.823 565.879, 310.145 585.100, 301.580 600.500 C 293.016 615.900, 286.006 628.746, 286.004 629.047 C 285.991 630.907, 317.463 642.091, 327 643.616 L 330.682 644.205 332.348 633.852 C 334.251 622.025, 336.179 611.068, 339.009 596 C 341.945 580.370, 347 552.362, 347 551.726 C 347 551.421, 345.087 550.097, 342.750 548.784 C 340.413 547.472, 337.367 545.650, 335.981 544.736 L 333.463 543.073 325.308 557.787 M 412.759 551.901 C 409.052 553.962, 405.738 555.929, 405.395 556.272 C 404.937 556.729, 432.800 603.766, 441.908 617.910 C 443.657 620.626, 462.851 603.169, 471.648 590.862 L 474.796 586.457 467.148 581.060 C 435.747 558.901, 420.126 548.011, 419.837 548.077 C 419.652 548.119, 416.467 549.840, 412.759 551.901 M 354.578 556.137 C 354.118 557.545, 340.517 633.293, 339.408 640.624 C 339.033 643.106, 339.203 645.007, 339.835 645.398 C 342.475 647.030, 382.828 645.596, 384.503 643.811 C 384.664 643.640, 384.423 641.025, 383.969 638 C 383.514 634.975, 381.508 621.475, 379.511 608 C 374.313 572.940, 372.074 559.661, 371.235 558.926 C 370.831 558.572, 368.025 557.781, 365 557.169 C 361.975 556.558, 358.493 555.768, 357.262 555.415 C 355.801 554.996, 354.870 555.246, 354.578 556.137 M 381 561.538 C 381 562.933, 383.234 578.796, 385.965 596.788 C 388.696 614.779, 391.221 631.805, 391.577 634.622 C 391.933 637.439, 392.574 640.310, 393.002 641.003 C 394.502 643.431, 413.922 636.249, 429.675 627.439 L 435.918 623.948 433.101 619.224 C 431.552 616.626, 425.198 606.175, 418.980 596 C 412.763 585.825, 405.186 573.337, 402.143 568.250 L 396.610 559 388.805 559 C 381.115 559, 381 559.038, 381 561.538 M 446.921 643.750 C 447.420 647.355, 447.454 647.384, 447.810 644.503 C 448.014 642.855, 448.702 641.174, 449.340 640.769 C 450.056 640.313, 449.716 640.025, 448.451 640.015 C 446.655 640.002, 446.466 640.465, 446.921 643.750 M 451.070 643.250 C 451.126 645.825, 451.300 646.094, 451.906 644.544 C 452.665 642.603, 452.679 642.603, 453.835 644.544 C 454.988 646.480, 455.012 646.480, 456.198 644.500 C 457.360 642.561, 457.418 642.576, 458.098 645 C 458.701 647.147, 458.815 646.970, 458.900 643.750 C 459 640.014, 457.456 638.647, 456.362 641.500 C 456.045 642.325, 455.384 643, 454.893 643 C 454.402 643, 454 642.325, 454 641.500 C 454 640.675, 453.325 640, 452.500 640 C 451.460 640, 451.022 640.997, 451.070 643.250" stroke="none" fill="#064c24" fill-rule="evenodd"/><path d="M 440.750 56.737 C 443.637 56.939, 448.363 56.939, 451.250 56.737 C 454.137 56.535, 451.775 56.370, 446 56.370 C 440.225 56.370, 437.863 56.535, 440.750 56.737 M 176.984 167.750 L 165.500 179.500 177.250 168.016 C 188.164 157.350, 189.454 156, 188.734 156 C 188.587 156, 183.300 161.287, 176.984 167.750 M 706.958 160.250 C 711.102 164.665, 712 165.459, 712 164.708 C 712 164.548, 709.862 162.410, 707.250 159.958 L 702.500 155.500 706.958 160.250 M 789.202 272.478 C 790.398 274.941, 791.549 276.785, 791.758 276.575 C 792.211 276.123, 788.170 268, 787.493 268 C 787.236 268, 788.005 270.015, 789.202 272.478 M 825.433 399.750 C 825.799 401.262, 826.355 414.650, 826.668 429.500 C 827.273 458.176, 826.522 471.124, 822.843 495.500 C 821.680 503.200, 820.678 511.143, 820.615 513.150 C 820.552 515.158, 820.202 516.619, 819.839 516.396 C 819.475 516.174, 818.855 517.897, 818.462 520.225 C 817.321 526.977, 812.144 546.862, 810.943 549.107 C 810.339 550.234, 810.092 551.796, 810.392 552.578 C 810.692 553.360, 810.554 554, 810.085 554 C 809.617 554, 808.998 554.900, 808.710 556 C 808.423 557.100, 808.595 558, 809.094 558 C 809.592 558, 810 557.523, 810 556.941 C 810 556.359, 810.450 556.160, 811 556.500 C 811.550 556.840, 812.020 556.304, 812.045 555.309 C 812.070 554.314, 812.739 552.150, 813.532 550.500 C 814.929 547.591, 814.955 547.667, 814.370 553 C 814.039 556.025, 813.370 558.650, 812.885 558.833 C 812.400 559.016, 812.293 560.320, 812.648 561.732 C 813.099 563.529, 812.948 564.086, 812.146 563.590 C 811.415 563.139, 811 563.693, 811 565.120 C 811 567.857, 809.389 573.088, 806.804 578.747 C 805.628 581.319, 805.129 583.833, 805.539 585.122 C 805.993 586.555, 805.852 587.027, 805.107 586.566 C 804.485 586.182, 804 586.541, 804 587.388 C 804 588.776, 801.458 594.637, 793.905 610.664 C 792.307 614.055, 791 617.304, 791 617.884 C 791 619.416, 786.923 627, 786.100 627 C 785.716 627, 784.855 628.513, 784.186 630.362 C 783.518 632.210, 781.820 635.023, 780.414 636.612 C 779.008 638.200, 777.488 640.400, 777.037 641.500 C 775.356 645.591, 765.266 659.933, 764.563 659.230 C 764.162 658.828, 763.981 658.950, 764.160 659.500 C 764.537 660.650, 760.191 668, 759.134 668 C 758.747 668, 757.577 669.462, 756.533 671.250 C 753.954 675.667, 749.801 680, 748.146 680 C 747.348 680, 747.024 680.620, 747.362 681.500 C 747.705 682.394, 747.371 683, 746.536 683 C 745.765 683, 744.855 683.880, 744.514 684.956 C 744.172 686.032, 742.592 688.007, 741.002 689.345 C 739.412 690.683, 738.369 692.036, 738.685 692.351 C 739 692.667, 738.075 693.464, 736.629 694.123 C 735.183 694.782, 734 695.725, 734 696.218 C 734 696.712, 731.975 699.112, 729.500 701.552 C 727.025 703.992, 725 706.441, 725 706.994 C 725 707.547, 724.391 708, 723.646 708 C 722.901 708, 721.129 709.078, 719.708 710.395 C 718.286 711.712, 716.799 712.500, 716.402 712.145 C 716.006 711.790, 715.955 712.265, 716.290 713.199 C 716.743 714.466, 716.488 714.741, 715.285 714.279 C 714.327 713.912, 713.926 714.071, 714.297 714.671 C 714.928 715.693, 710.970 719.088, 707.750 720.286 C 706.788 720.644, 706 721.653, 706 722.528 C 706 723.402, 705.550 723.840, 705 723.500 C 703.035 722.286, 704.127 720.748, 713.750 711.181 C 724.758 700.235, 734.889 689.330, 739.850 683.085 C 745.545 675.916, 742.831 677.733, 736.504 685.325 C 733.216 689.271, 723.187 699.813, 714.219 708.750 C 705.250 717.688, 698.234 725, 698.627 725 C 699.021 725, 700.165 724.255, 701.171 723.345 C 702.177 722.435, 703 722.158, 703 722.730 C 703 724.404, 698.224 727.173, 697.757 725.771 C 697.537 725.110, 694.103 727.402, 689.932 730.994 C 679.755 739.760, 659.288 754.576, 647.257 761.887 C 643.824 763.974, 641.349 766.050, 641.757 766.501 C 642.166 766.952, 642.016 767.045, 641.423 766.709 C 640.831 766.372, 636.331 768.350, 631.423 771.103 C 620.973 776.967, 606.236 784.097, 593.297 789.550 C 583.866 793.524, 581.422 795.174, 588.844 792.555 C 591.130 791.749, 593 791.487, 593 791.973 C 593 793.082, 590.450 795.674, 588.768 796.274 C 588.071 796.523, 587.816 797.066, 588.202 797.482 C 588.589 797.898, 589.633 797.510, 590.524 796.619 C 592.293 794.850, 594.494 794.392, 593.500 796 C 593.160 796.550, 593.557 797, 594.382 797 C 595.207 797, 596.164 796.543, 596.509 795.985 C 597.481 794.413, 604.294 791.844, 606.182 792.337 C 607.111 792.580, 608.071 792.259, 608.315 791.623 C 608.559 790.987, 611.625 789.839, 615.129 789.072 C 618.633 788.305, 621.725 787.382, 622 787.020 C 622.600 786.230, 628.533 783.843, 639.943 779.799 C 644.587 778.154, 649.762 775.785, 651.443 774.535 C 653.124 773.285, 655.706 771.978, 657.180 771.630 C 658.654 771.282, 660.482 770.375, 661.243 769.614 C 663.060 767.797, 671 763.760, 671 764.654 C 671 765.036, 672.013 764.422, 673.250 763.289 C 674.487 762.157, 676.521 760.920, 677.768 760.542 C 679.016 760.163, 681.491 758.522, 683.268 756.895 C 685.046 755.267, 687.850 753.565, 689.500 753.112 C 691.150 752.659, 692.388 751.774, 692.250 751.144 C 692.113 750.515, 692.434 750, 692.965 750 C 693.496 750, 695.468 748.650, 697.347 747 C 699.226 745.350, 701.519 744, 702.441 744 C 703.363 744, 703.881 743.616, 703.590 743.146 C 703.300 742.677, 704.257 741.748, 705.717 741.083 C 708.524 739.804, 715.030 734.994, 718.680 731.500 C 719.879 730.352, 722.104 728.758, 723.625 727.957 C 726.178 726.612, 744 709.575, 744 708.479 C 744 708.213, 746.925 705.056, 750.500 701.463 C 754.075 697.870, 757 694.271, 757 693.465 C 757 692.659, 757.617 692, 758.372 692 C 760.243 692, 769.858 681.273, 771.627 677.210 C 772.416 675.400, 773.497 674.189, 774.030 674.519 C 774.564 674.848, 775 674.665, 775 674.111 C 775 673.556, 776.118 671.842, 777.484 670.302 C 781.703 665.545, 781.900 665.245, 782.568 662.586 C 782.925 661.164, 783.538 660, 783.930 660 C 784.322 660, 785.660 657.750, 786.903 655 C 788.146 652.250, 789.592 650, 790.117 650 C 790.642 650, 791.987 647.862, 793.107 645.250 C 794.227 642.638, 795.786 640.140, 796.571 639.700 C 797.357 639.260, 798 638.248, 798 637.450 C 798 636.653, 798.450 636, 799 636 C 799.550 636, 800 635.380, 800 634.622 C 800 633.865, 800.619 632.731, 801.375 632.103 C 802.132 631.476, 803.307 628.974, 803.987 626.545 C 804.668 624.116, 805.849 621.888, 806.612 621.595 C 807.375 621.302, 808 620.204, 808 619.154 C 808 618.104, 808.675 616.685, 809.500 616 C 810.325 615.315, 811 613.717, 811 612.449 C 811 611.181, 811.675 609.468, 812.500 608.643 C 813.325 607.818, 814.014 606.098, 814.032 604.821 C 814.049 603.545, 814.724 601.626, 815.532 600.559 C 816.339 599.491, 817 597.669, 817 596.509 C 817 595.349, 817.395 593.972, 817.877 593.450 C 818.359 592.927, 819.548 590.056, 820.518 587.069 C 821.487 584.082, 823.154 580.159, 824.220 578.352 C 825.287 576.544, 825.978 574.263, 825.756 573.283 C 825.535 572.302, 825.981 570.222, 826.749 568.660 C 827.517 567.098, 827.918 565.229, 827.641 564.507 C 827.364 563.785, 827.767 562.363, 828.537 561.347 C 829.307 560.331, 829.951 557.903, 829.968 555.950 C 829.986 553.998, 830.456 551.944, 831.013 551.387 C 831.571 550.829, 832.481 546.352, 833.036 541.437 C 833.590 536.521, 835.021 528.929, 836.214 524.564 C 837.850 518.580, 838.080 516.527, 837.150 516.217 C 836.185 515.895, 836.198 515.467, 837.208 514.249 C 838.113 513.159, 838.447 509.514, 838.322 502.096 C 838.222 496.198, 838.653 490.035, 839.292 488.195 C 840.182 485.635, 840.163 484.719, 839.207 484.128 C 838.261 483.543, 838.166 480.455, 838.800 470.932 C 839.447 461.208, 839.340 458.046, 838.306 456.414 C 837.550 455.221, 837.228 453.080, 837.553 451.414 C 837.866 449.811, 837.385 443.100, 836.485 436.500 C 835.585 429.900, 834.458 421.565, 833.980 417.978 C 832.789 409.033, 832.323 408.074, 829.424 408.600 C 827.554 408.939, 827 408.604, 827 407.136 C 827 406.090, 827.831 405.016, 828.846 404.750 C 830.334 404.361, 830.585 403.609, 830.138 400.884 L 829.584 397.500 828.924 401 C 828.560 402.925, 828.136 403.825, 827.979 403 C 827.823 402.175, 827.591 401.050, 827.463 400.500 C 827.335 399.950, 827.179 398.938, 827.115 398.250 C 827.052 397.563, 826.498 397, 825.883 397 C 825.171 397, 825.008 397.994, 825.433 399.750 M 153.040 682.470 C 155.950 686.307, 163 693.955, 162.956 693.228 C 162.933 692.827, 160.345 689.787, 157.206 686.470 C 154.068 683.154, 152.193 681.354, 153.040 682.470 M 169.500 701 C 172.766 704.300, 175.662 707, 175.937 707 C 176.212 707, 173.766 704.300, 170.500 701 C 167.234 697.700, 164.338 695, 164.063 695 C 163.788 695, 166.234 697.700, 169.500 701 M 181.500 713 C 184.209 715.750, 186.650 718, 186.925 718 C 187.200 718, 185.209 715.750, 182.500 713 C 179.791 710.250, 177.350 708, 177.075 708 C 176.800 708, 178.791 710.250, 181.500 713 M 223 747.404 C 223 747.679, 225.025 749.297, 227.500 751 C 229.975 752.703, 232 753.871, 232 753.596 C 232 753.321, 229.975 751.703, 227.500 750 C 225.025 748.297, 223 747.129, 223 747.404 M 291 786.591 C 291 787.259, 300.195 791.138, 300.665 790.668 C 300.875 790.458, 298.787 789.347, 296.024 788.199 C 293.261 787.050, 291 786.327, 291 786.591" stroke="none" fill="#e6e4c4" fill-rule="evenodd"/></svg>
